<?xml version="1.0" encoding="UTF-8"?>
<!DOCTYPE svg PUBLIC "-//W3C//DTD SVG 1.1//EN" "http://www.w3.org/Graphics/SVG/1.1/DTD/svg11.dtd">
<svg xmlns="http://www.w3.org/2000/svg" version="1.1" width="1600px" height="80px" style="shape-rendering:geometricPrecision; text-rendering:geometricPrecision; image-rendering:optimizeQuality; fill-rule:evenodd; clip-rule:evenodd" xmlns:xlink="http://www.w3.org/1999/xlink">
<g><path style="opacity:1" fill="#45b678" d="M 137.5,-0.5 C 149.833,-0.5 162.167,-0.5 174.5,-0.5C 174.752,3.32672 176.085,6.66006 178.5,9.5C 179.072,11.2554 179.906,12.9221 181,14.5C 184.292,17.8732 187.792,20.8732 191.5,23.5C 198.34,28.502 206.007,29.8353 214.5,27.5C 217.167,28.1667 219.833,28.8333 222.5,29.5C 225.057,28.737 227.39,27.5703 229.5,26C 228.167,24.6667 228.167,23.3333 229.5,22C 232.608,20.6466 235.608,19.1466 238.5,17.5C 239.031,14.9015 239.198,12.2348 239,9.5C 242.576,7.14023 244.409,3.8069 244.5,-0.5C 255.833,-0.5 267.167,-0.5 278.5,-0.5C 271.378,38.7855 247.878,60.1188 208,63.5C 174.556,61.3779 151.89,44.7112 140,13.5C 138.714,8.90411 137.881,4.23744 137.5,-0.5 Z"/></g>
<g><path style="opacity:0.004" fill="#fefffe" d="M 1413.5,-0.5 C 1413.83,-0.5 1414.17,-0.5 1414.5,-0.5C 1414.31,0.170143 1413.98,0.170143 1413.5,-0.5 Z"/></g>
<g><path style="opacity:0.004" fill="#fefffe" d="M 219.5,2.5 C 220.833,3.16667 220.833,3.16667 219.5,2.5 Z"/></g>
<g><path style="opacity:0.004" fill="#fefffe" d="M 568.5,2.5 C 569.833,3.16667 569.833,3.16667 568.5,2.5 Z"/></g>
<g><path style="opacity:0.004" fill="#fefffe" d="M 811.5,2.5 C 812.833,3.16667 812.833,3.16667 811.5,2.5 Z"/></g>
<g><path style="opacity:0.004" fill="#fefffe" d="M 685.5,3.5 C 686.833,4.16667 686.833,4.16667 685.5,3.5 Z"/></g>
<g><path style="opacity:0.004" fill="#fefffe" d="M 1293.5,3.5 C 1294.83,4.16667 1294.83,4.16667 1293.5,3.5 Z"/></g>
<g><path style="opacity:0.004" fill="#fefffe" d="M 723.5,4.5 C 724.833,5.16667 724.833,5.16667 723.5,4.5 Z"/></g>
<g><path style="opacity:0.004" fill="#fefffe" d="M 1312.5,4.5 C 1313.83,5.16667 1313.83,5.16667 1312.5,4.5 Z"/></g>
<g><path style="opacity:0.004" fill="#fefffe" d="M 102.5,5.5 C 103.833,6.16667 103.833,6.16667 102.5,5.5 Z"/></g>
<g><path style="opacity:0.004" fill="#fefffe" d="M 439.5,5.5 C 440.833,6.16667 440.833,6.16667 439.5,5.5 Z"/></g>
<g><path style="opacity:0.004" fill="#fefffe" d="M 884.5,5.5 C 885.833,6.16667 885.833,6.16667 884.5,5.5 Z"/></g>
<g><path style="opacity:0.004" fill="#fefffe" d="M 123.5,6.5 C 124.833,7.16667 124.833,7.16667 123.5,6.5 Z"/></g>
<g><path style="opacity:0.004" fill="#fefffe" d="M 619.5,6.5 C 620.833,7.16667 620.833,7.16667 619.5,6.5 Z"/></g>
<g><path style="opacity:0.004" fill="#fefffe" d="M 699.5,7.5 C 700.833,8.16667 700.833,8.16667 699.5,7.5 Z"/></g>
<g><path style="opacity:0.004" fill="#fefffe" d="M 1175.5,7.5 C 1176.83,8.16667 1176.83,8.16667 1175.5,7.5 Z"/></g>
<g><path style="opacity:0.004" fill="#feff00" d="M 1521.5,7.5 C 1522.83,8.16667 1522.83,8.16667 1521.5,7.5 Z"/></g>
<g><path style="opacity:0.004" fill="#fefffe" d="M 178.5,8.5 C 179.833,9.16667 179.833,9.16667 178.5,8.5 Z"/></g>
<g><path style="opacity:0.004" fill="#fefffe" d="M 591.5,10.5 C 592.833,11.1667 592.833,11.1667 591.5,10.5 Z"/></g>
<g><path style="opacity:0.004" fill="#fefffe" d="M 1318.5,10.5 C 1319.83,11.1667 1319.83,11.1667 1318.5,10.5 Z"/></g>
<g><path style="opacity:0.004" fill="#fefffe" d="M 1448.5,10.5 C 1449.83,11.1667 1449.83,11.1667 1448.5,10.5 Z"/></g>
<g><path style="opacity:0.004" fill="#fefffe" d="M 534.5,11.5 C 535.833,12.1667 535.833,12.1667 534.5,11.5 Z"/></g>
<g><path style="opacity:0.004" fill="#fefffe" d="M 879.5,11.5 C 880.833,12.1667 880.833,12.1667 879.5,11.5 Z"/></g>
<g><path style="opacity:0.004" fill="#fefffe" d="M 1595.5,13.5 C 1596.83,14.1667 1596.83,14.1667 1595.5,13.5 Z"/></g>
<g><path style="opacity:0.004" fill="#fefffe" d="M 1257.5,14.5 C 1258.83,15.1667 1258.83,15.1667 1257.5,14.5 Z"/></g>
<g><path style="opacity:0.004" fill="#fefffe" d="M 59.5,18.5 C 60.8333,19.1667 60.8333,19.1667 59.5,18.5 Z"/></g>
<g><path style="opacity:1" fill="#4eae7c" d="M 241.5,-0.5 C 242.5,-0.5 243.5,-0.5 244.5,-0.5C 244.409,3.8069 242.576,7.14023 239,9.5C 239.198,12.2348 239.031,14.9015 238.5,17.5C 235.608,19.1466 232.608,20.6466 229.5,22C 228.167,23.3333 228.167,24.6667 229.5,26C 227.39,27.5703 225.057,28.737 222.5,29.5C 219.833,28.8333 217.167,28.1667 214.5,27.5C 206.007,29.8353 198.34,28.502 191.5,23.5C 216.033,31.5653 232.7,23.5653 241.5,-0.5 Z"/></g>
<g><path style="opacity:0.004" fill="#fefffe" d="M 295.5,19.5 C 296.833,20.1667 296.833,20.1667 295.5,19.5 Z"/></g>
<g><path style="opacity:0.004" fill="#fefffe" d="M 504.5,20.5 C 505.833,21.1667 505.833,21.1667 504.5,20.5 Z"/></g>
<g><path style="opacity:0.004" fill="#fefffe" d="M 857.5,20.5 C 858.833,21.1667 858.833,21.1667 857.5,20.5 Z"/></g>
<g><path style="opacity:1" fill="#f4816f" d="M 1444.5,53.5 C 1443.5,53.5858 1442.67,53.2524 1442,52.5C 1441.67,53.1667 1441.33,53.8333 1441,54.5C 1439.35,52.2503 1438.85,49.917 1439.5,47.5C 1437.38,47.4602 1435.38,46.9602 1433.5,46C 1434.93,44.1197 1434.6,42.6197 1432.5,41.5C 1430.51,43.4572 1428.51,45.4572 1426.5,47.5C 1425.53,45.604 1425.2,43.604 1425.5,41.5C 1426.5,41.5 1427.5,41.5 1428.5,41.5C 1426.83,38.1667 1425.17,34.8333 1423.5,31.5C 1421.83,31.5 1420.17,31.5 1418.5,31.5C 1418.72,30.325 1418.39,29.325 1417.5,28.5C 1415.55,27.2393 1413.55,26.0726 1411.5,25C 1406.96,24.8531 1402.62,24.0198 1398.5,22.5C 1396.15,23.9977 1393.65,25.331 1391,26.5C 1385.92,25.6929 1380.75,25.1929 1375.5,25C 1372.49,24.6676 1369.66,23.8343 1367,22.5C 1364.24,24.7949 1361.08,25.7949 1357.5,25.5C 1384.11,14.364 1408.77,17.864 1431.5,36C 1436.85,41.1655 1441.18,46.9988 1444.5,53.5 Z"/></g>
<g><path style="opacity:0.004" fill="#fefffe" d="M 1183.5,21.5 C 1184.83,22.1667 1184.83,22.1667 1183.5,21.5 Z"/></g>
<g><path style="opacity:0.004" fill="#fefffe" d="M 353.5,22.5 C 354.833,23.1667 354.833,23.1667 353.5,22.5 Z"/></g>
<g><path style="opacity:0.004" fill="#fefffe" d="M 800.5,22.5 C 801.833,23.1667 801.833,23.1667 800.5,22.5 Z"/></g>
<g><path style="opacity:0.004" fill="#fefffe" d="M 1107.5,22.5 C 1108.83,23.1667 1108.83,23.1667 1107.5,22.5 Z"/></g>
<g><path style="opacity:0.004" fill="#fefffe" d="M 464.5,25.5 C 465.833,26.1667 465.833,26.1667 464.5,25.5 Z"/></g>
<g><path style="opacity:1" fill="#fc7d6b" d="M 1444.5,53.5 C 1449.62,61.3082 1452.29,69.9749 1452.5,79.5C 1441.17,79.5 1429.83,79.5 1418.5,79.5C 1415.33,65.6678 1407,56.6678 1393.5,52.5C 1391.6,51.1952 1389.27,50.5286 1386.5,50.5C 1382.44,50.5753 1378.44,51.0753 1374.5,52C 1372.14,53.2425 1370.14,54.7425 1368.5,56.5C 1360.24,62.0134 1355.24,69.6801 1353.5,79.5C 1341.83,79.5 1330.17,79.5 1318.5,79.5C 1321.5,54.1827 1334.5,36.1827 1357.5,25.5C 1361.08,25.7949 1364.24,24.7949 1367,22.5C 1369.66,23.8343 1372.49,24.6676 1375.5,25C 1380.75,25.1929 1385.92,25.6929 1391,26.5C 1393.65,25.331 1396.15,23.9977 1398.5,22.5C 1402.62,24.0198 1406.96,24.8531 1411.5,25C 1413.55,26.0726 1415.55,27.2393 1417.5,28.5C 1418.39,29.325 1418.72,30.325 1418.5,31.5C 1420.17,31.5 1421.83,31.5 1423.5,31.5C 1425.17,34.8333 1426.83,38.1667 1428.5,41.5C 1427.5,41.5 1426.5,41.5 1425.5,41.5C 1425.2,43.604 1425.53,45.604 1426.5,47.5C 1428.51,45.4572 1430.51,43.4572 1432.5,41.5C 1434.6,42.6197 1434.93,44.1197 1433.5,46C 1435.38,46.9602 1437.38,47.4602 1439.5,47.5C 1438.85,49.917 1439.35,52.2503 1441,54.5C 1441.33,53.8333 1441.67,53.1667 1442,52.5C 1442.67,53.2524 1443.5,53.5858 1444.5,53.5 Z"/></g>
<g><path style="opacity:0.004" fill="#fefffe" d="M 292.5,29.5 C 293.833,30.1667 293.833,30.1667 292.5,29.5 Z"/></g>
<g><path style="opacity:0.004" fill="#fefffe" d="M 118.5,31.5 C 119.833,32.1667 119.833,32.1667 118.5,31.5 Z"/></g>
<g><path style="opacity:0.004" fill="#feff00" d="M 1485.5,31.5 C 1486.83,32.1667 1486.83,32.1667 1485.5,31.5 Z"/></g>
<g><path style="opacity:0.004" fill="#fefffe" d="M 372.5,33.5 C 373.833,34.1667 373.833,34.1667 372.5,33.5 Z"/></g>
<g><path style="opacity:0.004" fill="#feff00" d="M 1546.5,34.5 C 1547.83,35.1667 1547.83,35.1667 1546.5,34.5 Z"/></g>
<g><path style="opacity:0.004" fill="#fefffe" d="M 712.5,35.5 C 713.833,36.1667 713.833,36.1667 712.5,35.5 Z"/></g>
<g><path style="opacity:0.004" fill="#feff00" d="M 1483.5,35.5 C 1484.83,36.1667 1484.83,36.1667 1483.5,35.5 Z"/></g>
<g><path style="opacity:0.004" fill="#fefffe" d="M 574.5,36.5 C 575.833,37.1667 575.833,37.1667 574.5,36.5 Z"/></g>
<g><path style="opacity:0.004" fill="#feff00" d="M 1553.5,37.5 C 1554.83,38.1667 1554.83,38.1667 1553.5,37.5 Z"/></g>
<g><path style="opacity:0.004" fill="#feff00" d="M 1565.5,37.5 C 1566.83,38.1667 1566.83,38.1667 1565.5,37.5 Z"/></g>
<g><path style="opacity:0.004" fill="#fefffe" d="M 706.5,39.5 C 707.833,40.1667 707.833,40.1667 706.5,39.5 Z"/></g>
<g><path style="opacity:0.004" fill="#fefffe" d="M 747.5,39.5 C 748.833,40.1667 748.833,40.1667 747.5,39.5 Z"/></g>
<g><path style="opacity:0.004" fill="#fefffe" d="M 646.5,41.5 C 647.833,42.1667 647.833,42.1667 646.5,41.5 Z"/></g>
<g><path style="opacity:0.004" fill="#fefffe" d="M 868.5,41.5 C 869.833,42.1667 869.833,42.1667 868.5,41.5 Z"/></g>
<g><path style="opacity:0.004" fill="#fefffe" d="M 1095.5,44.5 C 1096.83,45.1667 1096.83,45.1667 1095.5,44.5 Z"/></g>
<g><path style="opacity:0.004" fill="#fefffe" d="M 1447.5,45.5 C 1448.83,46.1667 1448.83,46.1667 1447.5,45.5 Z"/></g>
<g><path style="opacity:0.004" fill="#fefffe" d="M 615.5,46.5 C 616.833,47.1667 616.833,47.1667 615.5,46.5 Z"/></g>
<g><path style="opacity:0.004" fill="#fefffe" d="M 542.5,48.5 C 543.833,49.1667 543.833,49.1667 542.5,48.5 Z"/></g>
<g><path style="opacity:0.963" fill="#dc8774" d="M 1393.5,52.5 C 1384.77,51.6335 1376.43,52.9668 1368.5,56.5C 1370.14,54.7425 1372.14,53.2425 1374.5,52C 1378.44,51.0753 1382.44,50.5753 1386.5,50.5C 1389.27,50.5286 1391.6,51.1952 1393.5,52.5 Z"/></g>
<g><path style="opacity:0.004" fill="#fefffe" d="M 1490.5,51.5 C 1491.83,52.1667 1491.83,52.1667 1490.5,51.5 Z"/></g>
<g><path style="opacity:0.004" fill="#fefffe" d="M 359.5,53.5 C 360.833,54.1667 360.833,54.1667 359.5,53.5 Z"/></g>
<g><path style="opacity:0.004" fill="#fefffe" d="M 334.5,55.5 C 335.833,56.1667 335.833,56.1667 334.5,55.5 Z"/></g>
<g><path style="opacity:0.004" fill="#fefffe" d="M 1491.5,55.5 C 1492.83,56.1667 1492.83,56.1667 1491.5,55.5 Z"/></g>
<g><path style="opacity:0.004" fill="#fefffe" d="M 1501.5,56.5 C 1502.83,57.1667 1502.83,57.1667 1501.5,56.5 Z"/></g>
<g><path style="opacity:0.004" fill="#fefffe" d="M 388.5,57.5 C 389.833,58.1667 389.833,58.1667 388.5,57.5 Z"/></g>
<g><path style="opacity:0.004" fill="#fefffe" d="M 658.5,57.5 C 659.833,58.1667 659.833,58.1667 658.5,57.5 Z"/></g>
<g><path style="opacity:0.004" fill="#fefffe" d="M 552.5,60.5 C 553.833,61.1667 553.833,61.1667 552.5,60.5 Z"/></g>
<g><path style="opacity:0.004" fill="#fefffe" d="M 467.5,62.5 C 468.833,63.1667 468.833,63.1667 467.5,62.5 Z"/></g>
<g><path style="opacity:0.004" fill="#fefffe" d="M 723.5,62.5 C 724.833,63.1667 724.833,63.1667 723.5,62.5 Z"/></g>
<g><path style="opacity:0.004" fill="#feff00" d="M 136.5,63.5 C 137.833,64.1667 137.833,64.1667 136.5,63.5 Z"/></g>
<g><path style="opacity:0.004" fill="#feff00" d="M 116.5,67.5 C 117.833,68.1667 117.833,68.1667 116.5,67.5 Z"/></g>
<g><path style="opacity:0.004" fill="#fefffe" d="M 1550.5,67.5 C 1551.83,68.1667 1551.83,68.1667 1550.5,67.5 Z"/></g>
<g><path style="opacity:0.004" fill="#fefffe" d="M 272.5,68.5 C 273.833,69.1667 273.833,69.1667 272.5,68.5 Z"/></g>
<g><path style="opacity:0.004" fill="#fefffe" d="M 466.5,68.5 C 467.833,69.1667 467.833,69.1667 466.5,68.5 Z"/></g>
<g><path style="opacity:0.004" fill="#fefffe" d="M 881.5,69.5 C 882.833,70.1667 882.833,70.1667 881.5,69.5 Z"/></g>
<g><path style="opacity:0.004" fill="#fefffe" d="M 723.5,70.5 C 724.833,71.1667 724.833,71.1667 723.5,70.5 Z"/></g>
<g><path style="opacity:0.004" fill="#fefffe" d="M 1493.5,70.5 C 1494.83,71.1667 1494.83,71.1667 1493.5,70.5 Z"/></g>
<g><path style="opacity:0.004" fill="#fefffe" d="M 1149.5,73.5 C 1150.83,74.1667 1150.83,74.1667 1149.5,73.5 Z"/></g>
<g><path style="opacity:0.004" fill="#fefffe" d="M 1394.5,73.5 C 1395.83,74.1667 1395.83,74.1667 1394.5,73.5 Z"/></g>
<g><path style="opacity:0.004" fill="#fefffe" d="M 438.5,74.5 C 439.833,75.1667 439.833,75.1667 438.5,74.5 Z"/></g>
<g><path style="opacity:0.004" fill="#fefffe" d="M 493.5,74.5 C 494.833,75.1667 494.833,75.1667 493.5,74.5 Z"/></g>
<g><path style="opacity:0.004" fill="#feff00" d="M 144.5,75.5 C 145.833,76.1667 145.833,76.1667 144.5,75.5 Z"/></g>
<g><path style="opacity:0.004" fill="#fefffe" d="M 1092.5,75.5 C 1093.83,76.1667 1093.83,76.1667 1092.5,75.5 Z"/></g>
<g><path style="opacity:0.004" fill="#fefffe" d="M 689.5,79.5 C 688.833,78.1667 688.833,78.1667 689.5,79.5 Z"/></g>
</svg>
