<?xml version="1.0" encoding="UTF-8"?>
<!DOCTYPE svg PUBLIC "-//W3C//DTD SVG 1.1//EN" "http://www.w3.org/Graphics/SVG/1.1/DTD/svg11.dtd">
<svg xmlns="http://www.w3.org/2000/svg" version="1.1" width="1600px" height="80px" style="shape-rendering:geometricPrecision; text-rendering:geometricPrecision; image-rendering:optimizeQuality; fill-rule:evenodd; clip-rule:evenodd" xmlns:xlink="http://www.w3.org/1999/xlink">
<g><path style="opacity:1" fill="#45b678" d="M 137.5,-0.5 C 149.833,-0.5 162.167,-0.5 174.5,-0.5C 176.735,9.98275 182.401,17.9827 191.5,23.5C 191.804,24.1499 192.137,24.8165 192.5,25.5C 198.605,28.4882 204.939,29.1548 211.5,27.5C 215.71,27.9347 219.877,28.6013 224,29.5C 225.806,28.24 227.639,27.0733 229.5,26C 228.167,24.6667 228.167,23.3333 229.5,22C 232.608,20.6466 235.608,19.1466 238.5,17.5C 239.031,14.9015 239.198,12.2348 239,9.5C 242.576,7.14023 244.409,3.8069 244.5,-0.5C 255.833,-0.5 267.167,-0.5 278.5,-0.5C 271.378,38.7855 247.878,60.1188 208,63.5C 180.904,62.3714 160.237,50.3714 146,27.5C 141.446,18.6724 138.613,9.3391 137.5,-0.5 Z"/></g>
<g><path style="opacity:0.004" fill="#fefffe" d="M 934.5,-0.5 C 934.833,-0.5 935.167,-0.5 935.5,-0.5C 935.315,0.170143 934.981,0.170143 934.5,-0.5 Z"/></g>
<g><path style="opacity:0.004" fill="#fefffe" d="M 1203.5,-0.5 C 1203.83,-0.5 1204.17,-0.5 1204.5,-0.5C 1204.31,0.170143 1203.98,0.170143 1203.5,-0.5 Z"/></g>
<g><path style="opacity:0.004" fill="#fefffe" d="M 355.5,0.5 C 356.833,1.16667 356.833,1.16667 355.5,0.5 Z"/></g>
<g><path style="opacity:0.004" fill="#fefffe" d="M 999.5,0.5 C 1000.83,1.16667 1000.83,1.16667 999.5,0.5 Z"/></g>
<g><path style="opacity:0.004" fill="#fefffe" d="M 711.5,1.5 C 712.833,2.16667 712.833,2.16667 711.5,1.5 Z"/></g>
<g><path style="opacity:0.004" fill="#fefffe" d="M 1060.5,1.5 C 1061.83,2.16667 1061.83,2.16667 1060.5,1.5 Z"/></g>
<g><path style="opacity:0.004" fill="#fefffe" d="M 15.5,2.5 C 16.8333,3.16667 16.8333,3.16667 15.5,2.5 Z"/></g>
<g><path style="opacity:0.004" fill="#fefffe" d="M 858.5,2.5 C 859.833,3.16667 859.833,3.16667 858.5,2.5 Z"/></g>
<g><path style="opacity:0.004" fill="#fefffe" d="M 877.5,2.5 C 878.833,3.16667 878.833,3.16667 877.5,2.5 Z"/></g>
<g><path style="opacity:0.004" fill="#fefffe" d="M 1423.5,3.5 C 1424.83,4.16667 1424.83,4.16667 1423.5,3.5 Z"/></g>
<g><path style="opacity:0.004" fill="#fefffe" d="M 130.5,5.5 C 131.833,6.16667 131.833,6.16667 130.5,5.5 Z"/></g>
<g><path style="opacity:0.004" fill="#fefffe" d="M 1202.5,5.5 C 1203.83,6.16667 1203.83,6.16667 1202.5,5.5 Z"/></g>
<g><path style="opacity:0.004" fill="#fefffe" d="M 70.5,7.5 C 70.8966,6.47498 71.5632,6.30831 72.5,7C 71.9056,7.46434 71.2389,7.63101 70.5,7.5 Z"/></g>
<g><path style="opacity:0.004" fill="#fefffe" d="M 689.5,6.5 C 690.833,7.16667 690.833,7.16667 689.5,6.5 Z"/></g>
<g><path style="opacity:0.004" fill="#fefffe" d="M 410.5,7.5 C 411.833,8.16667 411.833,8.16667 410.5,7.5 Z"/></g>
<g><path style="opacity:0.004" fill="#fefffe" d="M 31.5,12.5 C 32.8333,13.1667 32.8333,13.1667 31.5,12.5 Z"/></g>
<g><path style="opacity:0.004" fill="#fefffe" d="M 805.5,12.5 C 806.833,13.1667 806.833,13.1667 805.5,12.5 Z"/></g>
<g><path style="opacity:0.004" fill="#fefffe" d="M 1321.5,13.5 C 1322.83,14.1667 1322.83,14.1667 1321.5,13.5 Z"/></g>
<g><path style="opacity:0.004" fill="#fefffe" d="M 541.5,14.5 C 542.833,15.1667 542.833,15.1667 541.5,14.5 Z"/></g>
<g><path style="opacity:0.004" fill="#fefffe" d="M 906.5,14.5 C 907.833,15.1667 907.833,15.1667 906.5,14.5 Z"/></g>
<g><path style="opacity:0.004" fill="#feff00" d="M 1542.5,16.5 C 1543.83,17.1667 1543.83,17.1667 1542.5,16.5 Z"/></g>
<g><path style="opacity:0.004" fill="#fefffe" d="M 688.5,17.5 C 689.833,18.1667 689.833,18.1667 688.5,17.5 Z"/></g>
<g><path style="opacity:0.004" fill="#fefffe" d="M 884.5,18.5 C 885.833,19.1667 885.833,19.1667 884.5,18.5 Z"/></g>
<g><path style="opacity:0.004" fill="#fefffe" d="M 1245.5,20.5 C 1246.83,21.1667 1246.83,21.1667 1245.5,20.5 Z"/></g>
<g><path style="opacity:0.004" fill="#fefffe" d="M 1184.5,22.5 C 1185.83,23.1667 1185.83,23.1667 1184.5,22.5 Z"/></g>
<g><path style="opacity:0.004" fill="#fefffe" d="M 63.5,25.5 C 64.8333,26.1667 64.8333,26.1667 63.5,25.5 Z"/></g>
<g><path style="opacity:1" fill="#51b07d" d="M 241.5,-0.5 C 242.5,-0.5 243.5,-0.5 244.5,-0.5C 244.409,3.8069 242.576,7.14023 239,9.5C 239.198,12.2348 239.031,14.9015 238.5,17.5C 235.608,19.1466 232.608,20.6466 229.5,22C 228.167,23.3333 228.167,24.6667 229.5,26C 227.639,27.0733 225.806,28.24 224,29.5C 219.877,28.6013 215.71,27.9347 211.5,27.5C 204.939,29.1548 198.605,28.4882 192.5,25.5C 192.137,24.8165 191.804,24.1499 191.5,23.5C 216.033,31.5653 232.7,23.5653 241.5,-0.5 Z"/></g>
<g><path style="opacity:0.004" fill="#fefffe" d="M 1195.5,26.5 C 1196.83,27.1667 1196.83,27.1667 1195.5,26.5 Z"/></g>
<g><path style="opacity:1" fill="#fd7d6b" d="M 1450.5,68.5 C 1451.9,71.9085 1452.57,75.5752 1452.5,79.5C 1441.5,79.5 1430.5,79.5 1419.5,79.5C 1418.28,72.0119 1415.78,65.0119 1412,58.5C 1409.96,58.8018 1407.79,58.4684 1405.5,57.5C 1400.97,55.4343 1396.3,53.7677 1391.5,52.5C 1387.26,50.7251 1382.59,49.7251 1377.5,49.5C 1375.18,51.2434 1372.68,52.5767 1370,53.5C 1368.67,53.2451 1367.67,52.5784 1367,51.5C 1365.89,53.592 1365.72,55.9253 1366.5,58.5C 1359.3,63.708 1354.96,70.708 1353.5,79.5C 1341.83,79.5 1330.17,79.5 1318.5,79.5C 1321.53,54.157 1334.53,36.157 1357.5,25.5C 1361.08,25.7949 1364.24,24.7949 1367,22.5C 1369.63,23.9164 1372.46,24.5831 1375.5,24.5C 1383.84,23.6182 1392.17,23.1182 1400.5,23C 1399.29,23.8928 1399.29,24.7261 1400.5,25.5C 1401.09,25.2907 1401.59,24.9574 1402,24.5C 1405.79,25.1363 1409.62,25.803 1413.5,26.5C 1413.29,27.086 1412.96,27.586 1412.5,28C 1416.36,28.867 1420.02,30.2003 1423.5,32C 1423.95,35.5779 1425.95,37.5779 1429.5,38C 1427.03,39.4019 1427.03,40.9019 1429.5,42.5C 1428.83,43.1667 1428.17,43.8333 1427.5,44.5C 1427.83,44.8333 1428.17,45.1667 1428.5,45.5C 1429.91,44.376 1431.41,43.376 1433,42.5C 1434.74,43.6492 1434.91,44.9825 1433.5,46.5C 1435.58,47.0997 1437.58,47.433 1439.5,47.5C 1440.68,49.1353 1440.68,50.802 1439.5,52.5C 1440.81,53.9122 1441.64,55.5789 1442,57.5C 1442.32,55.6992 1442.98,55.3659 1444,56.5C 1446.87,59.5425 1448.21,63.2092 1448,67.5C 1448.67,68.2524 1449.5,68.5858 1450.5,68.5 Z"/></g>
<g><path style="opacity:0.004" fill="#fefffe" d="M 287.5,27.5 C 288.833,28.1667 288.833,28.1667 287.5,27.5 Z"/></g>
<g><path style="opacity:0.004" fill="#fefffe" d="M 472.5,28.5 C 473.833,29.1667 473.833,29.1667 472.5,28.5 Z"/></g>
<g><path style="opacity:0.004" fill="#fefffe" d="M 768.5,29.5 C 769.833,30.1667 769.833,30.1667 768.5,29.5 Z"/></g>
<g><path style="opacity:0.004" fill="#fefffe" d="M 1232.5,30.5 C 1233.83,31.1667 1233.83,31.1667 1232.5,30.5 Z"/></g>
<g><path style="opacity:0.004" fill="#fefffe" d="M 1041.5,31.5 C 1042.83,32.1667 1042.83,32.1667 1041.5,31.5 Z"/></g>
<g><path style="opacity:0.004" fill="#feff00" d="M 1497.5,31.5 C 1498.83,32.1667 1498.83,32.1667 1497.5,31.5 Z"/></g>
<g><path style="opacity:0.004" fill="#fefffe" d="M 361.5,32.5 C 362.833,33.1667 362.833,33.1667 361.5,32.5 Z"/></g>
<g><path style="opacity:0.004" fill="#fefffe" d="M 1159.5,33.5 C 1160.83,34.1667 1160.83,34.1667 1159.5,33.5 Z"/></g>
<g><path style="opacity:0.004" fill="#feff00" d="M 1485.5,34.5 C 1486.83,35.1667 1486.83,35.1667 1485.5,34.5 Z"/></g>
<g><path style="opacity:0.004" fill="#fefffe" d="M 1036.5,35.5 C 1037.83,36.1667 1037.83,36.1667 1036.5,35.5 Z"/></g>
<g><path style="opacity:0.004" fill="#fefffe" d="M 1243.5,35.5 C 1244.83,36.1667 1244.83,36.1667 1243.5,35.5 Z"/></g>
<g><path style="opacity:0.004" fill="#fefffe" d="M 408.5,37.5 C 409.833,38.1667 409.833,38.1667 408.5,37.5 Z"/></g>
<g><path style="opacity:0.004" fill="#fefffe" d="M 858.5,37.5 C 859.833,38.1667 859.833,38.1667 858.5,37.5 Z"/></g>
<g><path style="opacity:0.004" fill="#fefffe" d="M 1092.5,38.5 C 1093.83,39.1667 1093.83,39.1667 1092.5,38.5 Z"/></g>
<g><path style="opacity:1" fill="#f08371" d="M 1450.5,68.5 C 1449.5,68.5858 1448.67,68.2524 1448,67.5C 1448.21,63.2092 1446.87,59.5425 1444,56.5C 1442.98,55.3659 1442.32,55.6992 1442,57.5C 1441.64,55.5789 1440.81,53.9122 1439.5,52.5C 1440.68,50.802 1440.68,49.1353 1439.5,47.5C 1437.58,47.433 1435.58,47.0997 1433.5,46.5C 1434.91,44.9825 1434.74,43.6492 1433,42.5C 1431.41,43.376 1429.91,44.376 1428.5,45.5C 1428.17,45.1667 1427.83,44.8333 1427.5,44.5C 1428.17,43.8333 1428.83,43.1667 1429.5,42.5C 1427.03,40.9019 1427.03,39.4019 1429.5,38C 1425.95,37.5779 1423.95,35.5779 1423.5,32C 1420.02,30.2003 1416.36,28.867 1412.5,28C 1412.96,27.586 1413.29,27.086 1413.5,26.5C 1409.62,25.803 1405.79,25.1363 1402,24.5C 1401.59,24.9574 1401.09,25.2907 1400.5,25.5C 1399.29,24.7261 1399.29,23.8928 1400.5,23C 1392.17,23.1182 1383.84,23.6182 1375.5,24.5C 1372.46,24.5831 1369.63,23.9164 1367,22.5C 1364.24,24.7949 1361.08,25.7949 1357.5,25.5C 1387.65,13.1277 1414.15,18.461 1437,41.5C 1443.65,49.4654 1448.15,58.4654 1450.5,68.5 Z"/></g>
<g><path style="opacity:0.004" fill="#fefffe" d="M 1299.5,39.5 C 1300.83,40.1667 1300.83,40.1667 1299.5,39.5 Z"/></g>
<g><path style="opacity:0.004" fill="#fefffe" d="M 1238.5,40.5 C 1239.83,41.1667 1239.83,41.1667 1238.5,40.5 Z"/></g>
<g><path style="opacity:0.004" fill="#fefffe" d="M 554.5,48.5 C 555.833,49.1667 555.833,49.1667 554.5,48.5 Z"/></g>
<g><path style="opacity:1" fill="#e58672" d="M 1391.5,52.5 C 1382.31,51.2355 1373.98,53.2355 1366.5,58.5C 1365.72,55.9253 1365.89,53.592 1367,51.5C 1367.67,52.5784 1368.67,53.2451 1370,53.5C 1372.68,52.5767 1375.18,51.2434 1377.5,49.5C 1382.59,49.7251 1387.26,50.7251 1391.5,52.5 Z"/></g>
<g><path style="opacity:0.004" fill="#feff00" d="M 127.5,51.5 C 128.833,52.1667 128.833,52.1667 127.5,51.5 Z"/></g>
<g><path style="opacity:0.004" fill="#fefffe" d="M 1277.5,51.5 C 1278.83,52.1667 1278.83,52.1667 1277.5,51.5 Z"/></g>
<g><path style="opacity:0.004" fill="#fefffe" d="M 325.5,52.5 C 326.833,53.1667 326.833,53.1667 325.5,52.5 Z"/></g>
<g><path style="opacity:0.004" fill="#fefffe" d="M 1277.5,52.5 C 1276.83,53.1667 1276.83,53.1667 1277.5,52.5 Z"/></g>
<g><path style="opacity:0.004" fill="#fefffe" d="M 575.5,55.5 C 576.833,56.1667 576.833,56.1667 575.5,55.5 Z"/></g>
<g><path style="opacity:0.004" fill="#fefffe" d="M 958.5,55.5 C 959.833,56.1667 959.833,56.1667 958.5,55.5 Z"/></g>
<g><path style="opacity:0.004" fill="#fefffe" d="M 1056.5,55.5 C 1057.83,56.1667 1057.83,56.1667 1056.5,55.5 Z"/></g>
<g><path style="opacity:0.004" fill="#fefffe" d="M 532.5,56.5 C 533.833,57.1667 533.833,57.1667 532.5,56.5 Z"/></g>
<g><path style="opacity:0.004" fill="#fefffe" d="M 760.5,57.5 C 761.833,58.1667 761.833,58.1667 760.5,57.5 Z"/></g>
<g><path style="opacity:1" fill="#ec8d7c" d="M 1405.5,57.5 C 1407.79,58.4684 1409.96,58.8018 1412,58.5C 1415.78,65.0119 1418.28,72.0119 1419.5,79.5C 1419.17,79.5 1418.83,79.5 1418.5,79.5C 1416.74,70.6548 1412.41,63.3215 1405.5,57.5 Z"/></g>
<g><path style="opacity:0.004" fill="#fefffe" d="M 551.5,59.5 C 552.833,60.1667 552.833,60.1667 551.5,59.5 Z"/></g>
<g><path style="opacity:0.004" fill="#fefffe" d="M 1562.5,59.5 C 1563.83,60.1667 1563.83,60.1667 1562.5,59.5 Z"/></g>
<g><path style="opacity:0.004" fill="#fefffe" d="M 20.5,60.5 C 21.8333,61.1667 21.8333,61.1667 20.5,60.5 Z"/></g>
<g><path style="opacity:0.004" fill="#fefffe" d="M 873.5,62.5 C 874.833,63.1667 874.833,63.1667 873.5,62.5 Z"/></g>
<g><path style="opacity:0.004" fill="#fefffe" d="M 1055.5,62.5 C 1056.83,63.1667 1056.83,63.1667 1055.5,62.5 Z"/></g>
<g><path style="opacity:0.004" fill="#fefffe" d="M 617.5,64.5 C 618.833,65.1667 618.833,65.1667 617.5,64.5 Z"/></g>
<g><path style="opacity:0.004" fill="#fefffe" d="M 638.5,65.5 C 639.833,66.1667 639.833,66.1667 638.5,65.5 Z"/></g>
<g><path style="opacity:0.004" fill="#fefffe" d="M 860.5,65.5 C 861.833,66.1667 861.833,66.1667 860.5,65.5 Z"/></g>
<g><path style="opacity:0.004" fill="#fefffe" d="M 293.5,66.5 C 294.833,67.1667 294.833,67.1667 293.5,66.5 Z"/></g>
<g><path style="opacity:0.004" fill="#fefffe" d="M 901.5,66.5 C 902.833,67.1667 902.833,67.1667 901.5,66.5 Z"/></g>
<g><path style="opacity:0.004" fill="#fefffe" d="M 1304.5,66.5 C 1305.83,67.1667 1305.83,67.1667 1304.5,66.5 Z"/></g>
<g><path style="opacity:0.004" fill="#fefffe" d="M 237.5,67.5 C 238.833,68.1667 238.833,68.1667 237.5,67.5 Z"/></g>
<g><path style="opacity:0.004" fill="#fefffe" d="M 477.5,67.5 C 478.833,68.1667 478.833,68.1667 477.5,67.5 Z"/></g>
<g><path style="opacity:0.004" fill="#fefffe" d="M 275.5,69.5 C 276.833,70.1667 276.833,70.1667 275.5,69.5 Z"/></g>
<g><path style="opacity:0.004" fill="#fefffe" d="M 1027.5,71.5 C 1028.83,72.1667 1028.83,72.1667 1027.5,71.5 Z"/></g>
<g><path style="opacity:0.004" fill="#fefffe" d="M 946.5,72.5 C 947.833,73.1667 947.833,73.1667 946.5,72.5 Z"/></g>
<g><path style="opacity:0.004" fill="#fefffe" d="M 1250.5,72.5 C 1251.83,73.1667 1251.83,73.1667 1250.5,72.5 Z"/></g>
<g><path style="opacity:0.004" fill="#feff00" d="M 118.5,73.5 C 119.833,74.1667 119.833,74.1667 118.5,73.5 Z"/></g>
<g><path style="opacity:0.004" fill="#fefffe" d="M 238.5,73.5 C 239.833,74.1667 239.833,74.1667 238.5,73.5 Z"/></g>
<g><path style="opacity:0.004" fill="#fefffe" d="M 845.5,73.5 C 846.833,74.1667 846.833,74.1667 845.5,73.5 Z"/></g>
<g><path style="opacity:0.004" fill="#fefffe" d="M 1105.5,73.5 C 1106.83,74.1667 1106.83,74.1667 1105.5,73.5 Z"/></g>
<g><path style="opacity:0.004" fill="#fefffe" d="M 1463.5,74.5 C 1464.83,75.1667 1464.83,75.1667 1463.5,74.5 Z"/></g>
<g><path style="opacity:0.004" fill="#fefffe" d="M 1596.5,74.5 C 1597.83,75.1667 1597.83,75.1667 1596.5,74.5 Z"/></g>
<g><path style="opacity:0.004" fill="#fefffe" d="M 329.5,76.5 C 330.833,77.1667 330.833,77.1667 329.5,76.5 Z"/></g>
<g><path style="opacity:0.004" fill="#fefffe" d="M 1531.5,76.5 C 1532.83,77.1667 1532.83,77.1667 1531.5,76.5 Z"/></g>
</svg>
