<svg fill="none" height="80" viewBox="0 0 1600 80" width="1600" xmlns="http://www.w3.org/2000/svg" xmlns:xlink="http://www.w3.org/1999/xlink"><clipPath id="a"><path d="m0 0h1600v80h-1600z"/></clipPath><g clip-path="url(#a)"><path d="m1594.4-4.5-29.58-17.7825 7.89-32.7722-33.94 7.6211-18.41-28.5664-18.41 28.5664-33.94-7.6211 7.89 32.7722-29.58 17.7825 29.58 17.7825-7.89 32.7722 33.94-7.6211 18.41 28.5664 18.41-28.5664 33.94 7.6211-7.89-32.7722z" fill="#feb602"/><g clip-rule="evenodd" fill-rule="evenodd"><path d="m1453 84.3569c0-35.5909-29.84-64.4061-66.69-64.4061v32.2031c18.35 0 33.34 14.4076 33.34 32.203zm-66.69-64.4061c-36.86 0-66.69 28.8153-66.69 64.4061h33.34c0-17.7209 14.92-32.203 33.35-32.203z" fill="#ff7d6a"/><path d="m16 103c0-38.6821 31.7654-70 71-70v70z" fill="#ffd774"/><path d="m87 33c39.235 0 71 31.7654 71 71h-71z" fill="#feb602"/><path d="m208.263 63.0908c-38.828 0-70.263-31.4355-70.263-70.26267l35.131-.00001c0 19.33238 15.718 35.13128 35.132 35.13128zm70.263-70.26267c0 38.82727-31.435 70.26267-70.262 70.26267v-35.1313c19.332-.0001 35.131-15.7178 35.131-35.13137z" fill="#44b678"/></g></g></svg>